<?xml version="1.0" standalone="no"?>
<!DOCTYPE svg PUBLIC "-//W3C//DTD SVG 20010904//EN"
 "http://www.w3.org/TR/2001/REC-SVG-20010904/DTD/svg10.dtd">
<svg version="1.0" xmlns="http://www.w3.org/2000/svg"
 width="700.000000pt" height="700.000000pt" viewBox="0 0 700.000000 700.000000"
 preserveAspectRatio="xMidYMid meet">
<metadata>
Created by potrace 1.14, written by Peter Selinger 2001-2017
</metadata>
<g transform="translate(0.000000,700.000000) scale(0.100000,-0.100000)"
fill="#000000" stroke="none">
<path d="M3458 6695 c-1 -1 -43 -6 -93 -10 -49 -4 -92 -8 -95 -10 -3 -1 -30
-6 -61 -9 -31 -4 -67 -9 -80 -12 -13 -2 -49 -9 -79 -15 -324 -61 -689 -201
-993 -380 -235 -138 -429 -290 -632 -494 -385 -384 -650 -830 -803 -1351 -30
-99 -67 -259 -78 -332 -3 -20 -7 -44 -9 -52 -2 -8 -7 -37 -10 -65 -4 -27 -8
-61 -11 -75 -22 -138 -22 -607 1 -729 1 -9 6 -41 10 -71 70 -567 340 -1169
725 -1622 56 -66 265 -277 336 -340 84 -74 232 -185 354 -265 391 -255 830
-418 1320 -488 138 -20 547 -27 690 -13 133 14 176 19 225 29 28 5 64 11 80
13 105 13 486 123 590 171 17 7 59 25 95 40 135 56 468 241 532 294 7 6 56 43
108 82 254 191 484 427 677 695 61 85 153 230 153 242 0 5 -84 67 -187 137
-104 71 -223 153 -265 182 -43 29 -124 85 -180 124 -57 39 -134 91 -171 117
-37 26 -76 52 -85 57 -9 6 -19 12 -22 15 -3 3 -36 26 -73 52 l-69 46 -68 -101
c-71 -106 -84 -122 -172 -222 -270 -307 -696 -546 -1088 -611 -19 -3 -37 -7
-40 -9 -30 -18 -418 -27 -560 -12 -234 23 -487 95 -689 195 -422 210 -737 543
-894 947 -71 182 -119 402 -125 565 -3 85 -2 232 2 260 3 19 8 64 11 99 3 36
7 67 9 70 2 3 7 28 10 54 4 27 22 99 41 161 171 566 591 989 1185 1196 85 30
271 74 355 85 132 17 176 20 330 20 155 0 258 -6 325 -20 14 -3 39 -8 55 -10
122 -22 307 -82 440 -144 343 -161 616 -397 815 -704 l57 -87 34 23 c19 13 57
39 84 58 28 19 122 84 210 144 88 60 176 120 196 135 64 44 158 109 427 293
56 38 102 74 102 79 0 15 -97 165 -179 278 -195 267 -467 533 -744 728 -45 31
-89 62 -99 67 -9 6 -50 30 -90 55 -86 52 -314 169 -378 194 -25 10 -58 24 -75
31 -72 33 -338 117 -445 141 -11 2 -30 6 -42 9 -43 10 -184 35 -213 39 -17 2
-52 7 -80 10 -27 4 -66 9 -85 12 -38 6 -516 14 -522 9z"/>
<path d="M3570 5078 c-68 -10 -164 -56 -209 -100 -75 -73 -112 -170 -105 -274
13 -193 160 -330 366 -339 129 -5 230 31 313 112 77 76 107 159 100 276 -14
214 -222 359 -465 325z"/>
<path d="M3323 4180 c-17 -5 -18 -52 -17 -1105 1 -605 2 -1105 3 -1110 1 -15
661 -15 662 0 4 41 3 2215 -1 2216 -17 4 -632 3 -647 -1z"/>
</g>
</svg>
